<svg id="Layer_1" data-name="Layer 1" xmlns="http://www.w3.org/2000/svg" xmlns:xlink="http://www.w3.org/1999/xlink" viewBox="0 0 292.81 421.72"><defs><style>.cls-1{fill:none;}.cls-2{fill:#b2b2b2;}.cls-3{fill:#e9ede4;}.cls-4{fill:#90c652;}.cls-5{fill:#7eb445;}.cls-6{fill:#f0f0f0;}.cls-7{fill:#696f62;}.cls-8{clip-path:url(#clip-path);}.cls-9{fill:#161616;}</style><clipPath id="clip-path" transform="translate(-0.06 -0.14)"><polygon class="cls-1" points="256.96 175.09 256.96 127.21 209.08 127.21 146.46 64.59 83.85 127.21 21.53 127.21 21.53 189.53 0.06 211 146.46 357.4 292.87 211 256.96 175.09"/></clipPath></defs><title>heading-me</title><rect class="cls-2" x="42.94" y="16.32" width="78.13" height="78.13" transform="translate(63.13 -41.91) rotate(45)"/><path class="cls-3" d="M112.76,46.4l-5.35,0a25.21,25.21,0,0,0-1.82-4L109,38.26a3.18,3.18,0,0,0,.23-3.75L87.51,50a7.39,7.39,0,0,1-.11,10.57L109,76.79a3.15,3.15,0,0,0-.3-3.55l-3.52-4.34a26,26,0,0,0,1.87-3.78l5.55,0A3.16,3.16,0,0,0,115.79,62l.1-12.44A3.15,3.15,0,0,0,112.76,46.4Zm-7.34,14a.42.42,0,0,1-.13.33.49.49,0,0,1-.34.12h-9a.44.44,0,0,1-.33-.13.48.48,0,0,1-.13-.32v-1a1.08,1.08,0,0,1,.47-.89l2.95-2.92c.89-.71,1.58-1.28,2.06-1.73A6.38,6.38,0,0,0,102,52.59a2,2,0,0,0,.36-1.11,2,2,0,0,0-.48-1.4,1.88,1.88,0,0,0-1.43-.5,2,2,0,0,0-1.48.55,2.55,2.55,0,0,0-.67,1.44.53.53,0,0,1-.22.34.68.68,0,0,1-.35.1H96.07a.38.38,0,0,1-.4-.4A4.28,4.28,0,0,1,97.93,48a5.22,5.22,0,0,1,2.53-.59,5.75,5.75,0,0,1,2.57.52,3.6,3.6,0,0,1,1.58,1.42,4,4,0,0,1,.53,2.06,4,4,0,0,1-.71,2.29,10.31,10.31,0,0,1-2.2,2.2l-2.62,2.66H105a.45.45,0,0,1,.47.47Z" transform="translate(-0.06 -0.14)"/><path class="cls-3" d="M85.73,61.8a7.33,7.33,0,0,1-3.46.86,7.41,7.41,0,1,1,3.56-13.9l21.94-15.67L99.09,25.8a3.17,3.17,0,0,0-4.46.39l-3.33,4A25.65,25.65,0,0,0,86.9,29L86,23.9a3.18,3.18,0,0,0-3.69-2.54L70.05,23.62a3.17,3.17,0,0,0-2.54,3.69l.95,5.13a26.31,26.31,0,0,0-5.88,4.83l-4.88-2A3.16,3.16,0,0,0,53.57,37l-4.73,11.5a3.15,3.15,0,0,0,1.72,4.13l5,2.08c0,.19,0,.38,0,.56A26.71,26.71,0,0,0,55.86,59L51,61.56a3.17,3.17,0,0,0-1.3,4.28l5.86,11a3.17,3.17,0,0,0,4.28,1.3l5-2.67a26.64,26.64,0,0,0,3.31,2.44L67,83.47A3.16,3.16,0,0,0,69.5,87.2l12.19,2.47a3.16,3.16,0,0,0,3.73-2.47l1.14-5.62a26.41,26.41,0,0,0,4-1l3.6,4.44a3.16,3.16,0,0,0,4.45.46l9-7.31Z" transform="translate(-0.06 -0.14)"/><rect class="cls-2" x="171.85" y="327.55" width="78.13" height="78.13" transform="translate(320.95 -41.9) rotate(45)"/><circle class="cls-4" cx="210.86" cy="363.28" r="27.19"/><path class="cls-5" d="M210.92,336.23a27.19,27.19,0,0,0-27.19,27.19h54.38A27.19,27.19,0,0,0,210.92,336.23Z" transform="translate(-0.06 -0.14)"/><polygon class="cls-6" points="208.42 365.85 204.25 364.06 189.72 394.04 189.77 394.06 189.73 394.07 190.07 397.78 193.86 395.84 193.84 395.81 193.89 395.83 208.42 365.85"/><polygon class="cls-6" points="213.16 365.85 217.33 364.06 231.86 394.04 231.81 394.06 231.85 394.07 231.51 397.78 227.72 395.84 227.73 395.81 227.69 395.83 213.16 365.85"/><rect class="cls-7" x="206.73" y="349.78" width="8.25" height="8.25"/><path class="cls-7" d="M217,356.29H204.7a.91.91,0,0,0-.91.91v6.12a7,7,0,0,0,7,7h0a7,7,0,0,0,7-7V357.2A.91.91,0,0,0,217,356.29Zm-6,10.13a3.57,3.57,0,1,1,3.56-3.57A3.57,3.57,0,0,1,210.92,366.42Z" transform="translate(-0.06 -0.14)"/><path class="cls-6" d="M210.92,380.16a15.68,15.68,0,0,1-8.2-2.29l-1.37,2.83a18.95,18.95,0,0,0,28.51-16.35h-3.13A15.81,15.81,0,0,1,210.92,380.16Z" transform="translate(-0.06 -0.14)"/><rect class="cls-2" x="42.94" y="107.48" width="207.05" height="207.05" transform="translate(192.04 -41.9) rotate(45)"/><g class="cls-8"><path class="cls-9" d="M26.14,263.9a3.93,3.93,0,0,1-1.23-3V136.59a4.17,4.17,0,0,1,1.23-3.22,4.44,4.44,0,0,1,3.13-1.14H34a4,4,0,0,1,4,2.47l43.07,83.86,43.26-83.86a4.26,4.26,0,0,1,4-2.47h4.55a4,4,0,0,1,4.37,4.36V260.87a3.93,3.93,0,0,1-1.23,3,4.46,4.46,0,0,1-3.14,1.14h-3.41a3.91,3.91,0,0,1-4.17-4.17V158L89,229.37a6,6,0,0,1-5.88,3.8H79a6,6,0,0,1-5.88-3.8L36.86,158V260.87A3.92,3.92,0,0,1,32.69,265H29.27A4.44,4.44,0,0,1,26.14,263.9Z" transform="translate(-0.06 -0.14)"/><path class="cls-9" d="M174,263.9a4.1,4.1,0,0,1-1.14-3V136.59a4.45,4.45,0,0,1,1.14-3.13,3.93,3.93,0,0,1,3-1.23h74a4,4,0,0,1,4.36,4.36v2.85a3.94,3.94,0,0,1-1.23,3,4.49,4.49,0,0,1-3.13,1.13H184.85V192h62a4,4,0,0,1,4.37,4.36v2.85a3.91,3.91,0,0,1-1.24,3,4.42,4.42,0,0,1-3.13,1.14h-62v50.28h67.74A4,4,0,0,1,257,258v2.85a3.93,3.93,0,0,1-1.23,3,4.45,4.45,0,0,1-3.13,1.14H177.07A4.1,4.1,0,0,1,174,263.9Z" transform="translate(-0.06 -0.14)"/></g></svg>