<svg id="Layer_1" data-name="Layer 1" xmlns="http://www.w3.org/2000/svg" viewBox="0 0 58 58"><defs><style>.cls-1{fill:#2b2b2b;}.cls-2{fill:#ffd630;}.cls-3{fill:#605020;}</style></defs><title>using-ai</title><rect class="cls-1" width="58" height="58"/><rect class="cls-2" x="3.61" y="3.52" width="50.39" height="50.39"/><rect class="cls-3" x="6.2" y="6.11" width="45.21" height="45.21"/><path class="cls-2" d="M18.75,34.11l-3,9.12H11.87l9.85-29h4.51l9.89,29h-4L29,34.11Zm9.5-2.92-2.83-8.35c-.65-1.89-1.08-3.61-1.51-5.29h-.09c-.43,1.72-.9,3.49-1.46,5.25l-2.84,8.39Z"/><path class="cls-2" d="M44.34,16.57a2.35,2.35,0,0,1-4.69,0A2.31,2.31,0,0,1,42,14.2,2.25,2.25,0,0,1,44.34,16.57ZM40.12,43.23V22.41h3.79V43.23Z"/></svg>