<svg id="Layer_1" data-name="Layer 1" xmlns="http://www.w3.org/2000/svg" viewBox="0 0 58 58"><defs><style>.cls-1{fill:#2b2b2b;}.cls-2{fill:#e9ede4;}</style></defs><title>using-construct</title><rect class="cls-1" width="58" height="58"/><path class="cls-2" d="M51.42,22.52l-3.88,0a19.18,19.18,0,0,0-1.32-2.92l2.48-3a2.3,2.3,0,0,0,.17-2.72L33.09,25.15A5.39,5.39,0,0,1,33,32.83L48.69,44.59A2.29,2.29,0,0,0,48.48,42l-2.56-3.16a19.41,19.41,0,0,0,1.36-2.74l4,0a2.29,2.29,0,0,0,2.31-2.28l.08-9A2.3,2.3,0,0,0,51.42,22.52ZM46.1,32.65a.33.33,0,0,1-.1.24.35.35,0,0,1-.25.09H39.19a.34.34,0,0,1-.33-.33v-.71a.76.76,0,0,1,.34-.64l2.14-2.13c.65-.51,1.15-.93,1.5-1.25a5,5,0,0,0,.79-.9,1.52,1.52,0,0,0,.26-.81,1.4,1.4,0,0,0-.34-1,1.35,1.35,0,0,0-1-.37,1.43,1.43,0,0,0-1.08.4,1.91,1.91,0,0,0-.49,1.05.37.37,0,0,1-.15.24.48.48,0,0,1-.26.07H39.3a.27.27,0,0,1-.29-.28,3.16,3.16,0,0,1,.45-1.52,3,3,0,0,1,1.2-1.14,3.81,3.81,0,0,1,1.83-.43,4.27,4.27,0,0,1,1.87.38,2.69,2.69,0,0,1,1.15,1,3,3,0,0,1,.38,1.5,2.86,2.86,0,0,1-.51,1.66,8,8,0,0,1-1.6,1.6l-1.91,1.93h3.88a.32.32,0,0,1,.25.1.34.34,0,0,1,.1.25Z"/><path class="cls-2" d="M31.79,33.71a5.38,5.38,0,1,1,.07-9.48L47.8,12.85l-6.31-5.3a2.29,2.29,0,0,0-3.23.29l-2.42,2.88a19.07,19.07,0,0,0-3.2-.85L32,6.17a2.3,2.3,0,0,0-2.68-1.84L20.4,6a2.3,2.3,0,0,0-1.85,2.68l.69,3.72A19.79,19.79,0,0,0,15,15.88l-3.54-1.45a2.28,2.28,0,0,0-3,1.25L5,24a2.28,2.28,0,0,0,1.25,3L9.9,28.54V29a18.46,18.46,0,0,0,.19,2.7L6.56,33.54a2.3,2.3,0,0,0-.95,3.11l4.26,8a2.3,2.3,0,0,0,3.11.94l3.64-1.94A19.79,19.79,0,0,0,19,45.39l-.82,4.06A2.3,2.3,0,0,0,20,52.16L28.86,54a2.3,2.3,0,0,0,2.71-1.79l.82-4.08a19.52,19.52,0,0,0,2.88-.7l2.62,3.22a2.29,2.29,0,0,0,3.23.34l6.56-5.31Z"/></svg>