<svg id="Layer_1" data-name="Layer 1" xmlns="http://www.w3.org/2000/svg" viewBox="0 0 58 58"><defs><style>.cls-1{fill:#2b2b2b;}.cls-2{fill:#7f76f4;}.cls-3{fill:#e16984;}.cls-4{fill:#f6743f;}.cls-5{fill:#ed6e63;}.cls-6{fill:#cc65bb;}.cls-7{fill:#438df1;}.cls-8{fill:#768fce;}.cls-9{fill:#8474df;}.cls-10{fill:#736baa;}.cls-11{fill:#f87b26;}.cls-12{fill:#6182f8;}.cls-13{fill:#db62a1;}.cls-14{fill:#fa8507;}.cls-15{fill:#0bc6f7;}.cls-16{fill:#05a8fa;}.cls-17{fill:#5a88f2;}.cls-18{fill:#06c7fb;}.cls-19{fill:#05aafb;}.cls-20{fill:#1797f8;}.cls-21{fill:#498af9;}.cls-22{fill:#3c8efb;}</style></defs><title>using-kotlin</title><rect class="cls-1" width="58" height="58"/><path class="cls-2" d="M30.43,29.84C37.51,36.26,44.05,43.22,50.78,50c.78,1.4.29,2-1.24,2.07H44.47c-.63,0-1.44,0-1.46-.74-.07-2.39-1.84-3.7-3.21-5.19-3.73-4.07-7-8.59-11.13-12.27-.68-.6-1.77-1.35-1.46-2.67C27.9,29.84,28.8,29,30.43,29.84Z"/><path class="cls-3" d="M29.5,28.19l.16.8c-3,3.82-7.12,6.38-10.5,9.76a1.67,1.67,0,0,1-1.39.45c-1.13-.22-1.53-1.12-2-2-1.35-2.4-2.43-5-5.25-6.25C9.24,30.39,9.3,29,9.34,27.79,9.69,26.13,11,25,11.68,23.5c2-3.2,5.09-5.29,7.75-7.82.95.15,1.26.81,1.31,1.67a2.22,2.22,0,0,1-.13.88c-3.53,4.6-2.45,8.33,3,10.43a3.28,3.28,0,0,0,3.08-.58C27.64,27.49,28.61,26.89,29.5,28.19Z"/><path class="cls-4" d="M41.49,16.08a91.79,91.79,0,0,1-9.57,9.55c-3.1,2.37-4,2.25-6.64-.36-1.57-1.53-3-3.26-4.65-4.64-1-.79-1.52-1.58-.8-2.79l0,0c1.1-2.8,2.1-5.69,5.42-6.7,2.84,1.35,4,4.07,5.35,6.61,1.8,3.32,3.37,3.38,5.69.27,1.34-1.18,2.15-3.29,4.55-2.65A1.48,1.48,0,0,1,41.49,16.08Z"/><path class="cls-5" d="M19.83,17.84c2.55,2.53,5.15,5,7.62,7.61,1.52,1.61,3,.05,4.47.18L29.5,28.19c-1.66.37-2.71,1.69-4,2.58-1.06.71-1.94,1.05-2.82-.2-1.77-2.51-4.89-3.53-6.56-6.37-.81-1.39-1-1.86,0-2.83Z"/><path class="cls-6" d="M6,49.49l0-20c.79-1.32,1.67-2.47,3.47-2.12.68,1.34,0,2.5-.48,3.68-1.3,3-.4,5.62,2.74,6.8a6.22,6.22,0,0,1,3.86,3.48,25,25,0,0,1-8.69,9C6.47,50.27,6.25,49.88,6,49.49Z"/><path class="cls-7" d="M9.44,27.56l-3.37,2C6,22.19,6,14.86,5.9,7.53,5.88,6,6.44,5.32,8,5.37c3.2.12,6.41.16,9.62.23l.36.26c2.12,1.81,4.14,3.71,4.53,6.69a16.62,16.62,0,0,1-.93,2c-.41.61-.77,1.29-1.69,1.14-1.28-.43-1.27-1.66-1.68-2.65-1.74-4.28-4.64-6-9.09-5.56a1.61,1.61,0,0,0-1.33,2c.49,3.89.2,7.8.25,11.7,0,1.47.3,2.63,2.11,2.57a1.92,1.92,0,0,1,.76.4c1,1.35-.47,2-.86,2.93A1.33,1.33,0,0,1,9.44,27.56Z"/><path class="cls-8" d="M6.55,50.08A73.63,73.63,0,0,0,15,41.51c-.86-2.9,1.51-2.54,3-3A97.67,97.67,0,0,1,29.65,29l.78.85a4.14,4.14,0,0,0-2.7,2c.23,1-.38,1.62-1,2.25a6.42,6.42,0,0,1-.61.56A7.66,7.66,0,0,1,25,35.7c-1.12.19-1.13,1.34-1.71,2a22.6,22.6,0,0,0-3.31,2.95c-3.82,4.2-7.58,8.47-12.57,11.4C6,51.85,6.08,51,6.55,50.08Z"/><path class="cls-9" d="M17.6,5.72l0-.12a53.43,53.43,0,0,1,11,0,1.69,1.69,0,0,1,.07,1.44c-1.56,3.26-4.39,5.17-7.4,6.88l.55-1.57c.56-2.52-1.16-3.93-2.66-5.44C18.67,6.48,18,6.33,17.6,5.72Z"/><path class="cls-10" d="M6.55,50.08c0,.72.14,1.42,1,1.6a9.72,9.72,0,0,1,5.59-1.41c4.59-.08,9.18.16,13.77-.18a48.72,48.72,0,0,1,10.66.24c.73,0,1.43.22,2.14.3s1.4.13,2.1.15a2.21,2.21,0,0,1,1.84.81l4.77.06c1.19,0,2.21-.17,2.33-1.65.63.34,1.36.81,1.2,1.53s-1.15.62-1.8.62c-14.07,0-28.13,0-42.2,0-2.1,0-2.31-1.07-1.95-2.7Z"/><path class="cls-4" d="M29.56,5.67c7.25-.6,14.5-.11,21.94-.3a5.37,5.37,0,0,1-2.63,3.3,1,1,0,0,1-1.15-.06,2,2,0,0,0-1.46-.77c-4.16-.48-8.29-1.4-12.5-.28a5.89,5.89,0,0,1-3.56-.2,2.28,2.28,0,0,1-.74-.71A.92.92,0,0,1,29.56,5.67Z"/><path class="cls-5" d="M29.56,5.67l.16.75a1.9,1.9,0,0,1,0,2.15c-1.92.44-1.93,3.49-4.38,3.2-2.34,1.54-3.5,4.15-5.44,6.05-.13-.58-.26-1.16-.38-1.74l-.32-.22c.08-.44.28-.7.78-.56L21.24,14a43.37,43.37,0,0,0,7.34-8.32Z"/><path class="cls-11" d="M48.33,8.2l.54.47a58,58,0,0,1-7.38,7.41l-.34-.16a1.34,1.34,0,0,1-.31-.5C40.42,12.64,45.47,7.78,48.33,8.2Z"/><path class="cls-12" d="M43.68,51.59l-1.93,0a45.6,45.6,0,0,1-6-7.17,69,69,0,0,0-8-8.24,5.12,5.12,0,0,1-1.92-2.65l1.86-1.71a35,35,0,0,1,7.82,7.73,95.75,95.75,0,0,0,7.57,8.52C44.19,49.09,45.13,50.15,43.68,51.59Z"/><path class="cls-13" d="M18.06,38.48l-3,3a35,35,0,0,0-3.59-2.07c-4.9-1.81-6-6-2.84-10a3.2,3.2,0,0,0,.87-1.85l.16-.14a.41.41,0,0,1,.58.2c.21.55.31,1.48.65,1.59C15.45,30.63,15.92,35.2,18.06,38.48Z"/><path class="cls-7" d="M19.48,16.08c-1.88,3.16-5.19,5.05-7.12,8.15a1.09,1.09,0,0,1-1.21.64l-.36-.37A1.77,1.77,0,0,1,11,22.07c1.51-1.72,2.72-3.72,4.61-5.08,1-.91,1.89-2.46,3.55-.92A.17.17,0,0,1,19.48,16.08Z"/><path class="cls-6" d="M11.15,24.87l1.21-.64c-.19,1.48-1.49,2.24-2.17,3.39l-.58-.2Z"/><path class="cls-14" d="M48.33,8.2c-2.65,2.33-5.46,4.52-7.18,7.72-1.66.54-2.7,1.84-3.77,3.1-1.59,1.33-3.15.82-4.26-.48a37.69,37.69,0,0,1-4.63-6.28A3.12,3.12,0,0,1,29,8.16l.76-1.74.49-.08a109.34,109.34,0,0,1,18.63,0Z"/><path class="cls-11" d="M29,8.16C29.53,12.77,33.6,18,37.38,19a4.4,4.4,0,0,1-.3.52c-3.38,4-5.41,3.83-7.62-.82-1.17-2.48-3-4.5-4.16-6.95C26.18,10.22,27,8.64,29,8.16Z"/><path class="cls-15" d="M16.35,17.85,10.79,24.5c-1.36.59-2.11,3-3.54,2.3s-.7-2.91-.72-4.44c-.06-4.52,0-9,.06-13.56,0-1.49.19-2.92,2.26-2.76A39,39,0,0,0,15.29,14,3.58,3.58,0,0,1,16.35,17.85Z"/><path class="cls-16" d="M16.35,17.85a39.94,39.94,0,0,0-5.68-6.5C9.21,9.89,8.11,8.27,8.85,6c5.32-.66,9.25,1.62,11.09,6.34.4,1-.25,1.95,0,2.92l-.74.77C18,16.18,17.32,17.29,16.35,17.85Z"/><path class="cls-17" d="M17.6,5.72c3.79.4,5.84,3.65,4.2,6.66C21.19,9.66,18.16,8.47,17.6,5.72Z"/><path class="cls-18" d="M27.32,51.64l-19.74,0C10.81,47,15.24,43.47,19.21,39.5,23,40.36,25.58,43,27.67,46c.91,1.32,2.62,2.8,1.29,4.87C28.55,51.45,27.87,51.41,27.32,51.64Z"/><path class="cls-19" d="M28.44,51.15c-1.06-3-2.26-5.84-5.28-7.64-1.56-.93-2.65-2.65-3.95-4a11.12,11.12,0,0,1,3-2.94c1.57-.87,2.76-.85,4.14.73,3.19,3.66,6,7.67,9.76,10.84a2,2,0,0,1,.77,2.26c-.36,1.11-1.3,1.13-2.21,1.07C32.61,51.31,30.49,51.84,28.44,51.15Z"/><path class="cls-20" d="M28.44,51.15c1.81,0,3.61,0,5.42,0,.69,0,1.48,0,1.85-.73a1.47,1.47,0,0,0-.64-1.84c-3.65-2.92-6.14-6.84-9.1-10.36a4.78,4.78,0,0,0-3.74-1.63l1.93-1.89c1-.47,2-.66,2.75.31,3.61,4.72,8.21,8.55,11.9,13.2.89,1.12,2.17,2.6-.42,3.45a69.47,69.47,0,0,1-11.08,0Z"/><path class="cls-21" d="M25.87,33.51c2.94,1.19,4.66,3.79,6.73,5.93,2.79,2.88,5.28,6.05,7.89,9.11a6,6,0,0,1,1.26,3l-1.75,0a8.48,8.48,0,0,0-3-4.78A171.38,171.38,0,0,1,25.37,33.68Z"/><path class="cls-22" d="M25.37,33.68c5.37,4.41,9.06,10.38,14.07,15.12A2.59,2.59,0,0,1,40,51.61l-1.61,0c.91-1.29.23-2.36-.61-3.22Q31.69,42.17,26,35.55c-.41-.48-1.24-.59-1.87-.88Z"/><path class="cls-11" d="M48.84,6.38l-18.63,0A57.65,57.65,0,0,1,48.84,6.38Z"/></svg>