<svg id="Layer_1" data-name="Layer 1" xmlns="http://www.w3.org/2000/svg" viewBox="0 0 58 58"><defs><style>.cls-1{fill:#2b2b2b;}.cls-2{fill:#3c6ca0;}</style></defs><title>using-php</title><rect class="cls-1" width="58" height="58"/><path class="cls-2" d="M40.4,25.31a2,2,0,0,0-1.27.56,4.66,4.66,0,0,0-1.14,2,8.51,8.51,0,0,0-.51,2.92A3.4,3.4,0,0,0,38,32.84a1.7,1.7,0,0,0,2.52.27,5,5,0,0,0,1.22-2.06,8.65,8.65,0,0,0,.51-2.9,3.39,3.39,0,0,0-.55-2.1A1.62,1.62,0,0,0,40.4,25.31Z"/><path class="cls-2" d="M21.53,25.31a2,2,0,0,0-1.27.56,4.66,4.66,0,0,0-1.14,2,8.51,8.51,0,0,0-.51,2.92,3.4,3.4,0,0,0,.55,2.07,1.7,1.7,0,0,0,2.52.27,5,5,0,0,0,1.22-2.06,8.65,8.65,0,0,0,.51-2.9,3.39,3.39,0,0,0-.55-2.1A1.62,1.62,0,0,0,21.53,25.31Z"/><path class="cls-2" d="M29,17C15.19,17,4,22.6,4,29.5S15.19,42,29,42s25-5.6,25-12.5S42.81,17,29,17ZM24.21,31.81a6.14,6.14,0,0,1-1.79,2.54,2.83,2.83,0,0,1-1.81.7c-1.06,0-1.87-.65-2.45-2l-1,5.84H15.65l2.54-14.84H19.6l-.27,1.5a5.71,5.71,0,0,1,1.4-1.38A2.42,2.42,0,0,1,22,23.84a2.51,2.51,0,0,1,2.05,1.1,5.24,5.24,0,0,1,.84,3.22A9.35,9.35,0,0,1,24.21,31.81ZM34,28.48l-1.11,6.33H31.37l1.16-6.5a14.08,14.08,0,0,0,.26-1.77,1.15,1.15,0,0,0-.33-.87,1.11,1.11,0,0,0-.85-.33,2.7,2.7,0,0,0-1.51.48,3.35,3.35,0,0,0-1.17,1.38,12.08,12.08,0,0,0-.82,3l-.79,4.61H25.81L28.35,20h1.51l-1,5.69a6.15,6.15,0,0,1,1.61-1.45,3,3,0,0,1,1.46-.4,2.19,2.19,0,0,1,1.68.68,2.62,2.62,0,0,1,.63,1.86A13.36,13.36,0,0,1,34,28.48Zm9.09,3.33a6.14,6.14,0,0,1-1.79,2.54,2.83,2.83,0,0,1-1.81.7c-1.06,0-1.87-.65-2.45-2l-1,5.84H34.52l2.54-14.84h1.41l-.27,1.5a5.71,5.71,0,0,1,1.4-1.38,2.42,2.42,0,0,1,1.27-.36,2.51,2.51,0,0,1,2.05,1.1,5.24,5.24,0,0,1,.84,3.22A9.35,9.35,0,0,1,43.08,31.81Z"/></svg>