<svg id="Layer_1" data-name="Layer 1" xmlns="http://www.w3.org/2000/svg" viewBox="0 0 58 58"><defs><style>.cls-1{fill:#2b2b2b;}.cls-2{fill:#90c652;}.cls-3{fill:#7eb445;}.cls-4{fill:#f0f0f0;}.cls-5{fill:#696f62;}</style></defs><title>using-anstud</title><rect class="cls-1" width="58" height="58"/><circle class="cls-2" cx="29" cy="25.92" r="22.92"/><path class="cls-3" d="M29,3A22.92,22.92,0,0,0,6.08,25.92H51.92A22.92,22.92,0,0,0,29,3Z"/><polygon class="cls-4" points="26.94 28.09 23.43 26.58 11.18 51.85 11.22 51.87 11.19 51.87 11.48 55 14.67 53.37 14.66 53.34 14.7 53.36 26.94 28.09"/><polygon class="cls-4" points="30.94 28.09 34.46 26.58 46.7 51.85 46.66 51.87 46.69 51.87 46.4 55 43.21 53.37 43.22 53.34 43.18 53.36 30.94 28.09"/><rect class="cls-5" x="25.52" y="14.54" width="6.95" height="6.95"/><path class="cls-5" d="M34.08,19.91H23.76a.78.78,0,0,0-.77.77v5.16a5.94,5.94,0,0,0,5.93,5.93h0a5.94,5.94,0,0,0,5.93-5.93V20.68A.78.78,0,0,0,34.08,19.91ZM29,28.45a3,3,0,1,1,3-3A3,3,0,0,1,29,28.45Z"/><path class="cls-4" d="M29,40a13.2,13.2,0,0,1-6.91-1.93l-1.16,2.39A16,16,0,0,0,45,26.71H42.32A13.32,13.32,0,0,1,29,40Z"/></svg>