<svg id="Layer_1" data-name="Layer 1" xmlns="http://www.w3.org/2000/svg" viewBox="0 0 58 58"><defs><style>.cls-1{fill:#2b2b2b;}.cls-2{fill:#fec92b;}.cls-3{fill:#fba513;}.cls-4{fill:#f4830c;}.cls-5{fill:#faa30e;}</style></defs><title>using-firebase</title><rect class="cls-1" width="58" height="58"/><path class="cls-2" d="M34.57,18.82,36,18.45c2-1,3.3-2.75,4.85-4.23s2.37-1.64,2.75.78q2.07,12.9,4.24,25.79c.35,2.13,0,3.81-2.16,5-4.69,2.47-9.3,5.08-13.91,7.69a4.85,4.85,0,0,1-5.31,0c-4.8-2.83-9.66-5.54-14.5-8.29-.8-.45-1.61-.85-1.67-1.93,3.18-5.76,8.42-9.69,12.81-14.38,2-2.09,4.21-3.88,6-6.13a18.22,18.22,0,0,0,2.56-2.56A2.64,2.64,0,0,1,34.57,18.82Z"/><path class="cls-3" d="M12.36,28.64c1.24-7.42,2.5-14.84,3.72-22.27.25-1.47,0-3.76,1.21-4.09S19,4.22,19.68,5.37c1.4,2.29,2.66,4.67,3.86,7.08A2.55,2.55,0,0,0,26.34,14a1.09,1.09,0,0,1-.12,1.13c-3.88,6.94-7.37,14.08-11.24,21-1,1.76-1.66,4-4.23,4.21Z"/><path class="cls-4" d="M10.75,40.4C14.51,35.33,16.85,29.45,20,24c1.54-2.63,2.87-5.39,4.28-8.09a2.5,2.5,0,0,1,1.54-1.41c3.54,1,6,6.17,4.3,9.13C25,28.78,20,34,14.74,39c-1.48,1.42-2.52,3.29-4.41,4.27Z"/><path class="cls-5" d="M30.13,23.66c.72-3.17-2.22-4.85-3-7.4a7,7,0,0,0-1.26-1.73l.51-.49C27,12.41,27.6,10,29.11,9.79s1.89,2.42,2.7,3.83a26.16,26.16,0,0,1,2.76,5.2Z"/></svg>