<svg id="Layer_1" data-name="Layer 1" xmlns="http://www.w3.org/2000/svg" xmlns:xlink="http://www.w3.org/1999/xlink" viewBox="0 0 80.15 80.15"><defs><style>.cls-1{fill:none;}.cls-2{fill:#2b2b2b;}.cls-3{clip-path:url(#clip-path);}.cls-4{fill:#fbfbfb;}.cls-5{fill:#fe4e37;}.cls-6{fill:#e0e0e0;}.cls-7{fill:#c53827;}.cls-8{fill:#fffffe;}.cls-9{fill:#d3d8d4;}</style><clipPath id="clip-path" transform="translate(0)"><path class="cls-1" d="M71.07,31V19.27H9.86v11s0,0,.07-.08L0,40.07,40.07,80.15,80.15,40.07Z"/></clipPath></defs><title>cp-email</title><rect class="cls-2" x="11.74" y="11.74" width="56.67" height="56.67" transform="translate(40.07 -16.6) rotate(45)"/><g class="cls-3"><rect class="cls-4" x="12.43" y="22.62" width="56.13" height="41.96" rx="14.08" ry="14.08"/><path class="cls-5" d="M18.54,22.62h-2.2a3.91,3.91,0,0,0-3.91,3.91V60.66a3.92,3.92,0,0,0,3.91,3.92h2.2Z" transform="translate(0)"/><path class="cls-6" d="M68.56,60.66V26.53a3.92,3.92,0,0,0-3.92-3.91H16.34a3.91,3.91,0,0,0-3.91,3.91v1.13L52.94,64.58h11.7A3.93,3.93,0,0,0,68.56,60.66Z" transform="translate(0)"/><path class="cls-7" d="M64.64,22.62h-2.2v42h2.2a3.93,3.93,0,0,0,3.92-3.92V26.53A3.92,3.92,0,0,0,64.64,22.62Z" transform="translate(0)"/><path class="cls-8" d="M40.49,44.69,68.56,30.23v-3.7a3.92,3.92,0,0,0-3.92-3.91H16.34a3.91,3.91,0,0,0-3.91,3.91v3.7Z" transform="translate(0)"/><polygon class="cls-9" points="40.49 44.57 35.96 49.1 12.43 27.66 40.49 44.57"/><path class="cls-5" d="M68.56,26.53a3.91,3.91,0,0,0-1.93-3.36L40.49,36.63,14.35,23.17a3.9,3.9,0,0,0-1.92,3.36v3.7L40.49,44.69,68.56,30.23Z" transform="translate(0)"/></g></svg>