<svg id="Layer_1" data-name="Layer 1" xmlns="http://www.w3.org/2000/svg" xmlns:xlink="http://www.w3.org/1999/xlink" viewBox="0 0 79.91 79.91"><defs><style>.cls-1{fill:none;}.cls-2{fill:#2b2b2b;}.cls-3{clip-path:url(#clip-path);}.cls-4{fill:#1d81db;}</style><clipPath id="clip-path" transform="translate(-0.04 -0.09)"><polygon class="cls-1" points="56.14 16.23 64.45 16.27 64.45 -3.73 23.99 -3.73 23.99 16.09 0.04 40.04 40 80 79.96 40.04 56.14 16.23"/></clipPath></defs><title>cp-facebook</title><rect class="cls-2" x="11.75" y="11.79" width="56.51" height="56.51" transform="translate(39.99 -16.64) rotate(45)"/><g class="cls-3"><path class="cls-4" d="M31.74,78.87a2.14,2.14,0,0,1-.67-1.6V40.49H23.42a2.25,2.25,0,0,1-2.27-2.27V32.65a2.25,2.25,0,0,1,2.27-2.27h7.65V26.6q0-8.61,4.64-12.81t14-4.21h6.52a2.25,2.25,0,0,1,2.27,2.27v5.58a2.27,2.27,0,0,1-2.27,2.27h-6q-3.69,0-5.2,1.79t-1.51,5.58v3.31H55.27a2.25,2.25,0,0,1,2.27,2.27v5.57a2.25,2.25,0,0,1-2.27,2.27H43.46V77.27a2.26,2.26,0,0,1-.62,1.6,2.15,2.15,0,0,1-1.65.66H33.34A2.17,2.17,0,0,1,31.74,78.87Z" transform="translate(-0.04 -0.09)"/></g></svg>