<svg id="Layer_1" data-name="Layer 1" xmlns="http://www.w3.org/2000/svg" xmlns:xlink="http://www.w3.org/1999/xlink" viewBox="0 0 80.02 80.02"><defs><style>.cls-1{fill:none;}.cls-2{fill:#2b2b2b;}.cls-3{clip-path:url(#clip-path);}.cls-4{fill:#f25f5f;}.cls-5{fill:#fff;}</style><clipPath id="clip-path" transform="translate(0.03)"><polygon class="cls-1" points="69.8 50.2 79.99 40.01 68.57 28.59 67.46 9.19 49.17 9.19 39.98 0 30.79 9.19 12.16 9.19 12.16 27.82 -0.03 40.01 12.16 52.2 12.16 52.2 27.41 67.45 27.41 67.45 39.98 80.02 60.42 59.58 69.8 50.2 69.8 50.2"/></clipPath></defs><title>cp-ig</title><rect class="cls-2" x="11.69" y="11.72" width="56.58" height="56.58" transform="translate(40.03 -16.55) rotate(45)"/><g class="cls-3"><rect class="cls-4" x="13.42" y="9.19" width="54.07" height="54.07" rx="9.58" ry="9.58"/><path class="cls-5" d="M54.39,57.26H26.45a7.06,7.06,0,0,1-7-7.06V22.26a7.06,7.06,0,0,1,7.05-7.06H54.39a7.06,7.06,0,0,1,7.06,7.06V50.2A7.07,7.07,0,0,1,54.39,57.26ZM26.45,19.2a3.06,3.06,0,0,0-3.05,3.06V50.2a3.06,3.06,0,0,0,3.05,3H54.39a3.06,3.06,0,0,0,3.06-3V22.26a3.06,3.06,0,0,0-3.06-3.06Z" transform="translate(0.03)"/><path class="cls-5" d="M40.42,49.24a13,13,0,1,1,13-13A13,13,0,0,1,40.42,49.24Zm0-22a9,9,0,1,0,9,9A9,9,0,0,0,40.42,27.21Z" transform="translate(0.03)"/><path class="cls-5" d="M52.44,26.21a3,3,0,1,1,3-3A3,3,0,0,1,52.44,26.21Zm0-4a1,1,0,1,0,1,1A1,1,0,0,0,52.44,22.21Z" transform="translate(0.03)"/></g></svg>