<svg id="Layer_1" data-name="Layer 1" xmlns="http://www.w3.org/2000/svg" xmlns:xlink="http://www.w3.org/1999/xlink" viewBox="0 0 79.91 79.91"><defs><style>.cls-1{fill:none;}.cls-2{fill:#2b2b2b;}.cls-3{clip-path:url(#clip-path);}.cls-4{fill:#fff;}.cls-5{fill:#1fbe46;}.cls-6{fill:#ecf4ee;}</style><clipPath id="clip-path" transform="translate(-0.04 -0.04)"><polygon class="cls-1" points="79.96 40 72.45 32.5 70.91 5.89 47.12 7.16 40 0.04 32.08 7.96 8.26 9.23 7.38 32.66 0.04 40 6.85 46.81 5.75 76.06 32.76 72.72 32.76 72.72 40 79.96 79.96 40"/></clipPath></defs><title>cp-whatsapp</title><rect class="cls-2" x="11.75" y="11.75" width="56.51" height="56.51" transform="translate(39.96 -16.61) rotate(45)"/><g class="cls-3"><path class="cls-4" d="M8.06,72.71c3.3-10.19,3.76-17.95,1.27-26.65C5.39,32.3,13.21,17.92,25.82,11.36c11.55-6,26.83-3.85,36.44,5.16a32.48,32.48,0,0,1,7.07,37c-6.09,12.8-20.14,21-34.16,17.56C26.44,69,18.51,69,8.06,72.71Z" transform="translate(-0.04 -0.04)"/><path class="cls-5" d="M56.38,18.82a25.92,25.92,0,0,0-30.17-1.15c-9.66,6.24-13.45,15.7-11,27.56.1,6.13,5.09,11.69-.12,19.89,7.38-2.87,12.12-1.91,17.14-.27,15.3,5,27.5-1.78,33-17.63h0C68.43,35.66,65.35,25.65,56.38,18.82ZM42,49.92c-5.81-1.92-9.17-7.53-14.81-9.54,1.62-2.34.4-5.8,2.42-8.85,4.58,16.72,8.41,19.4,21.66,15.3C50.36,51.41,47,51.55,42,49.92Z" transform="translate(-0.04 -0.04)"/><path class="cls-6" d="M51.49,44.2c2.39,2.13,6.34,3.81,3.59,7.93a7,7,0,0,1-8,2.81c-8.65-2.54-16.61-6.18-20.94-14.86a41.65,41.65,0,0,1-1.73-6.43c-.45-4.09.8-8.32,5.29-8.24,3.84.06,4.53,4.51,4.72,7.87C35.17,46,38.85,48.42,51.49,44.2Z" transform="translate(-0.04 -0.04)"/></g></svg>