<svg id="Layer_1" data-name="Layer 1" xmlns="http://www.w3.org/2000/svg" xmlns:xlink="http://www.w3.org/1999/xlink" viewBox="0 0 972.5 512.24"><defs><style>.cls-1{fill:none;}.cls-2{clip-path:url(#clip-path);}.cls-3{clip-path:url(#clip-path-2);}.cls-4{clip-path:url(#clip-path-3);}.cls-5{clip-path:url(#clip-path-4);}.cls-6{clip-path:url(#clip-path-5);}</style><clipPath id="clip-path" transform="translate(1.47 -1)"><path class="cls-1" d="M738.83,170.33a70.64,70.64,0,0,0-1.62-15.64A42.9,42.9,0,0,0,732,142.07a40.91,40.91,0,0,0-12.22-12.5,43.14,43.14,0,0,0-24.9-7.61c-23.55.18-47.1.09-70.65.09q-122.36,0-244.7,0-110.17,0-220.35,0c-9.3,0-18.62-.38-27,4.55a62.77,62.77,0,0,0-11.2,7.93,45.64,45.64,0,0,0-8.31,11.12,36.45,36.45,0,0,0-4.78,16.34c-.58,12.79-.2,25.62-.27,38.43,0,1.84.83,2.34,2.49,2.29,2.61-.07,5.25.16,7.85,0,10-.77,17.22,8.46,17.23,17.4q0,80.4,0,160.79a18.35,18.35,0,0,1-3.37,10.9c-3.65,5.27-8.41,7.57-14.55,7.65-3.13,0-6.26,0-9.62,0,0,10.91.08,21.19,0,31.47-.1,9,1,17.58,5.39,25.69A43.35,43.35,0,0,0,130.2,474c7.59,4.26,16,6,24.84,5.95q236.06-.11,472.09-.06c23.28,0,46.56.14,69.84-.15a39.31,39.31,0,0,0,13.46-2.92,46.71,46.71,0,0,0,14.4-9.15,40.73,40.73,0,0,0,11.76-17.92,52.82,52.82,0,0,0,2.18-15.54Q739,302.29,738.83,170.33Z"/></clipPath><clipPath id="clip-path-2" transform="translate(1.47 -1)"><path class="cls-1" d="M957,36a26.42,26.42,0,0,0-.61-5.89,16.17,16.17,0,0,0-2-4.75,15.27,15.27,0,0,0-4.6-4.7,16.22,16.22,0,0,0-9.37-2.87c-8.86.07-17.73,0-26.59,0H821.76q-41.46,0-82.93,0c-3.5,0-7-.14-10.16,1.72a23.77,23.77,0,0,0-4.22,3,17,17,0,0,0-3.13,4.19,13.81,13.81,0,0,0-1.8,6.15c-.22,4.81-.07,9.64-.1,14.46,0,.69.31.88.94.87,1,0,2,.06,2.95,0,3.76-.29,6.48,3.18,6.49,6.55q0,30.25,0,60.52a6.85,6.85,0,0,1-1.27,4.1,6.28,6.28,0,0,1-5.48,2.88c-1.17,0-2.35,0-3.62,0,0,4.11,0,8,0,11.85a19.46,19.46,0,0,0,2,9.67,16.27,16.27,0,0,0,6.46,6.59,18.69,18.69,0,0,0,9.35,2.25q88.85,0,177.69,0c8.76,0,17.52,0,26.29-.05a15,15,0,0,0,5.06-1.1,17.45,17.45,0,0,0,5.42-3.45,15.29,15.29,0,0,0,4.43-6.74,19.93,19.93,0,0,0,.82-5.85Q957.06,85.65,957,36Z"/></clipPath><clipPath id="clip-path-3" transform="translate(1.47 -1)"><path class="cls-1" d="M959,183.08a26,26,0,0,0-.61-5.84,15.79,15.79,0,0,0-2-4.72,15.47,15.47,0,0,0-4.62-4.67,16.66,16.66,0,0,0-9.44-2.84c-8.92.07-17.84,0-26.77,0H822.83q-41.74,0-83.49,0c-3.52,0-7.05-.14-10.22,1.7a24.82,24.82,0,0,0-4.25,3,16.86,16.86,0,0,0-3.14,4.16,13.51,13.51,0,0,0-1.82,6.1c-.21,4.78-.07,9.57-.1,14.36,0,.69.32.87,1,.86,1,0,2,.05,3,0,3.78-.29,6.52,3.16,6.53,6.5q0,30,0,60.06a6.83,6.83,0,0,1-1.28,4.08,6.34,6.34,0,0,1-5.51,2.85c-1.19,0-2.37,0-3.65,0,0,4.08,0,7.92,0,11.76a19,19,0,0,0,2,9.6,16.26,16.26,0,0,0,6.5,6.55,19.11,19.11,0,0,0,9.41,2.22q89.43,0,178.86,0c8.82,0,17.64.05,26.46-.06a15,15,0,0,0,5.1-1.09,17.83,17.83,0,0,0,5.46-3.42,15.1,15.1,0,0,0,4.45-6.69,19.35,19.35,0,0,0,.83-5.81Q959,232.38,959,183.08Z"/></clipPath><clipPath id="clip-path-4" transform="translate(1.47 -1)"><path class="cls-1" d="M244.42,383.62a26.47,26.47,0,0,0-.6-5.83,16.07,16.07,0,0,0-1.95-4.71,15.5,15.5,0,0,0-4.56-4.67,16.11,16.11,0,0,0-9.29-2.83c-8.79.06-17.58,0-26.37,0H110.32q-41.11,0-82.23,0c-3.47,0-6.95-.14-10.08,1.7a24.26,24.26,0,0,0-4.18,3,17.11,17.11,0,0,0-3.1,4.15A13.65,13.65,0,0,0,9,380.49c-.22,4.78-.08,9.56-.1,14.35,0,.68.31.87.93.85,1,0,2,.06,2.92,0,3.73-.28,6.43,3.16,6.43,6.5q0,30,0,60a6.81,6.81,0,0,1-1.26,4.06,6.24,6.24,0,0,1-5.43,2.86H8.87c0,4.07,0,7.91,0,11.75a19.1,19.1,0,0,0,2,9.58,16.07,16.07,0,0,0,6.4,6.54,18.5,18.5,0,0,0,9.27,2.23q88.1,0,176.19,0c8.69,0,17.38.06,26.07-.05a14.59,14.59,0,0,0,5-1.09,17.43,17.43,0,0,0,5.37-3.42,15.06,15.06,0,0,0,4.39-6.69,19.88,19.88,0,0,0,.82-5.8Q244.47,432.88,244.42,383.62Z"/></clipPath><clipPath id="clip-path-5" transform="translate(1.47 -1)"><path class="cls-1" d="M244.91,233.53a26,26,0,0,0-.6-5.84,16.25,16.25,0,0,0-1.95-4.72,15.19,15.19,0,0,0-4.57-4.67,16.17,16.17,0,0,0-9.31-2.85c-8.8.07-17.61,0-26.41,0H110.58q-41.19,0-82.39,0c-3.47,0-7-.14-10.09,1.7a24.24,24.24,0,0,0-4.19,3,17,17,0,0,0-3.1,4.16A13.51,13.51,0,0,0,9,230.4c-.22,4.78-.07,9.58-.1,14.37,0,.68.31.87.93.85,1,0,2,.06,2.93,0,3.73-.29,6.44,3.16,6.45,6.5q0,30.06,0,60.12A6.82,6.82,0,0,1,18,316.3a6.24,6.24,0,0,1-5.44,2.86c-1.17,0-2.34,0-3.6,0,0,4.08,0,7.93,0,11.77a19.06,19.06,0,0,0,2,9.6,16.08,16.08,0,0,0,6.41,6.56,18.69,18.69,0,0,0,9.29,2.23q88.25,0,176.5,0c8.71,0,17.41,0,26.11-.05a15,15,0,0,0,5-1.1,17.11,17.11,0,0,0,5.38-3.42,15.14,15.14,0,0,0,4.4-6.7,19.9,19.9,0,0,0,.82-5.81Q245,282.88,244.91,233.53Z"/></clipPath><image id="image" width="508" height="805" xlink:href="../../smartphone_frame.png"/></defs><title>gallery-alzora</title><use transform="matrix(0, -0.86, 0.86, 0, 82.32, 512.24)" xlink:href="#image"/><g class="cls-2"><image width="1086" height="615" transform="translate(94.47 115.83) scale(0.59)" xlink:href="../../Screenshots/Alzora Kata/Screenshot_2.jpg"/></g><use transform="translate(709.34 165.06) rotate(-90) scale(0.32)" xlink:href="#image"/><g class="cls-3"><image width="1088" height="612" transform="translate(720.47 17) scale(0.22)" xlink:href="../../Screenshots/Alzora Kata/Screenshot_3.jpg"/></g><use transform="matrix(0, -0.32, 0.33, 0, 709.34, 311.18)" xlink:href="#image"/><g class="cls-4"><image width="1088" height="614" transform="translate(720.47 162) scale(0.22)" xlink:href="../../Screenshots/Alzora Kata/Screenshot_5.jpg"/></g><use transform="matrix(0, -0.32, 0.32, 0, -1.47, 511.61)" xlink:href="#image"/><g class="cls-5"><image width="1086" height="617" transform="translate(9.47 364) scale(0.22)" xlink:href="../../Screenshots/Alzora Kata/Screenshot_4.jpg"/></g><use transform="matrix(0, -0.32, 0.32, 0, -1.09, 361.75)" xlink:href="#image"/><g class="cls-6"><image width="1091" height="620" transform="translate(9.47 213) scale(0.22)" xlink:href="../../Screenshots/Alzora Kata/Screenshot_1.jpg"/></g></svg>